<svg version="1.1" id="Capa_1" xmlns="http://www.w3.org/2000/svg" xmlns:xlink="http://www.w3.org/1999/xlink" x="0px" y="0px"
	 viewBox="0 0 496 496" style="enable-background:new 0 0 496 496;" xml:space="preserve">
<g>
	<g>
		<g>
			<path d="M136,295.954c-30.928,0-56,25.072-56,56c0,30.928,25.072,56,56,56c30.928,0,56-25.072,56-56
				C191.965,321.041,166.913,295.99,136,295.954z M136,391.954c-22.091,0-40-17.909-40-40c0-22.091,17.909-40,40-40s40,17.909,40,40
				C175.974,374.035,158.08,391.928,136,391.954z"/>
			<path d="M320,351.954c0,30.928,25.072,56,56,56c30.928,0,56-25.072,56-56c-0.035-30.913-25.087-55.965-56-56
				C345.072,295.954,320,321.027,320,351.954z M376,311.954c22.091,0,40,17.909,40,40c-0.026,22.08-17.92,39.974-40,40
				c-22.091,0-40-17.909-40-40C336,329.863,353.909,311.954,376,311.954z"/>
			<path d="M488,87.954H195.696L183.28,60.642c-1.298-2.854-4.144-4.687-7.28-4.688h-48v16h42.848l50.912,112H160v-88
				c0-4.418-3.582-8-8-8H72c-22.08,0.026-39.974,17.92-40,40v56.8c-18.613,3.825-31.979,20.198-32,39.2v64
				c0,2.122,0.844,4.156,2.344,5.656l46.544,46.544c-0.563,3.909-0.86,7.851-0.888,11.8c0.25,48.6,39.851,87.796,88.451,87.547
				c45.153-0.232,82.804-34.601,87.141-79.547h64.8c4.371,48.404,47.154,84.1,95.558,79.729c48.404-4.371,84.1-47.154,79.729-95.558
				c-2.872-31.804-22.748-59.557-51.935-72.515l-36.176-48.224l114.032-23.6c3.722-0.76,6.397-4.033,6.4-7.832v-96
				C496,91.536,492.418,87.954,488,87.954z M160,199.954h69.032l7.272,16H160V199.954z M160,231.954h83.576l5.144,11.312
				c1.548,3.401,5.245,5.278,8.904,4.52l67.36-13.936l23.136,34.704c-8.537,2.871-16.58,7.04-23.848,12.36l-14.616-14.616
				c-1.5-1.5-3.534-2.344-5.656-2.344h-96c-2.122,0-4.156,0.844-5.656,2.344l-14.616,14.616
				c-8.369-6.12-17.757-10.709-27.728-13.552V231.954z M48,135.954h64v48H48V135.954z M32,300.642l-16-16v-52.688h16V300.642z
				 M48,316.642v-92.688c0-4.418-3.582-8-8-8H17.472c3.378-9.555,12.394-15.958,22.528-16h80c4.418,0,8-3.582,8-8v-64
				c0-4.418-3.582-8-8-8H49.472c3.378-9.555,12.394-15.958,22.528-16h72v160.408c-2.64-0.24-5.296-0.408-8-0.408
				c-37.006,0.066-70.024,23.258-82.64,58.048L48,316.642z M136,423.954c-39.765,0-72-32.236-72-72c0-39.765,32.235-72,72-72
				s72,32.235,72,72C207.956,391.701,175.746,423.91,136,423.954z M248,343.954h-24.408c-1.8-19.672-10.192-38.16-23.816-52.464
				l11.536-11.536H248V343.954z M264,343.954v-64h36.688l11.536,11.536c-13.624,14.304-22.016,32.792-23.816,52.464H264z
				 M448,351.954c0.153,39.91-32.076,72.388-71.986,72.541c-39.91,0.153-72.388-32.076-72.541-71.986s32.076-72.388,71.986-72.541
				c8.935-0.034,17.798,1.589,26.141,4.786C429.494,295.38,447.947,322.105,448,351.954z M386.52,264.642
				c-7.211-0.949-14.519-0.911-21.72,0.112l-22.928-34.4l16.384-3.384L386.52,264.642z M480,185.442l-219.36,45.376l-43.128-94.864
				H480V185.442z M480,119.954H210.24l-7.272-16H480V119.954z"/>
			<rect x="96" y="215.954" width="32" height="16"/>
		</g>
	</g>
</g>
</svg>
